<?xml version="1.0" encoding="UTF-8" standalone="no"?>
<svg width="300" height="300" viewBox="0 0 300 300" xmlns="http://www.w3.org/2000/svg">
  <!-- Background rectangle -->
  <rect x="0" y="0" width="300" height="300" fill="#ffffff"/>
  
  <!-- Bank Mandiri colors -->
  <rect x="10" y="10" width="280" height="280" fill="#004990"/>
  <rect x="20" y="20" width="260" height="260" fill="#ffffff"/>
  
  <!-- Title text -->
  <text x="150" y="50" font-family="Arial" font-size="16" text-anchor="middle" font-weight="bold" fill="#004990">QR Code Bank Mandiri</text>
  
  <!-- Simple QR code representation -->
  <g transform="translate(60, 70)">
    <!-- QR Code (simplified representation) -->
    <rect x="0" y="0" width="180" height="180" fill="#f2f2f2"/>
    <g fill="#000000">
      <!-- QR code pattern (simplified) -->
      <rect x="10" y="10" width="160" height="10"/>
      <rect x="10" y="30" width="10" height="120"/>
      <rect x="30" y="30" width="60" height="10"/>
      <rect x="30" y="50" width="10" height="40"/>
      <rect x="50" y="50" width="40" height="10"/>
      <rect x="50" y="70" width="10" height="20"/>
      <rect x="70" y="70" width="20" height="10"/>
      
      <rect x="110" y="30" width="60" height="10"/>
      <rect x="160" y="30" width="10" height="120"/>
      <rect x="110" y="50" width="10" height="40"/>
      <rect x="130" y="50" width="40" height="10"/>
      <rect x="130" y="70" width="10" height="20"/>
      <rect x="150" y="70" width="20" height="10"/>
      
      <rect x="10" y="160" width="160" height="10"/>
      <rect x="30" y="130" width="60" height="10"/>
      <rect x="30" y="110" width="10" height="40"/>
      <rect x="50" y="110" width="40" height="10"/>
      <rect x="50" y="90" width="10" height="20"/>
      <rect x="70" y="90" width="20" height="10"/>
      
      <rect x="110" y="130" width="60" height="10"/>
      <rect x="110" y="110" width="10" height="40"/>
      <rect x="130" y="110" width="40" height="10"/>
      <rect x="130" y="90" width="10" height="20"/>
      <rect x="150" y="90" width="20" height="10"/>
    </g>
  </g>
  
  <!-- Bank details -->
  <text x="150" y="270" font-family="Arial" font-size="12" text-anchor="middle" font-weight="bold" fill="#004990">Bank Mandiri</text>
  <text x="150" y="288" font-family="Arial" font-size="12" text-anchor="middle" fill="#004990">1820000922591</text>
</svg>